<svg width="32" height="32" viewBox="0 0 32 32" fill="none" xmlns="http://www.w3.org/2000/svg">
<g clip-path="url(#clip0_101_1553)">
<path d="M18.1484 21.8971L15.3598 6.35427C15.1769 5.25713 14.8112 4.15998 14.1255 3.10856C13.2112 1.6457 11.7484 0.639984 10.1027 0.228556C3.61123 -1.32573 -1.18877 5.1657 1.64552 10.9257L8.41123 25.4171C8.59409 25.8743 8.86837 26.3314 9.18837 26.7428C9.73694 27.4743 10.4684 28.0228 11.3369 28.2971C15.7255 29.6686 19.2455 25.7828 18.1484 21.8971Z" fill="url(#paint0_linear_101_1553)"/>
<path d="M30.8113 12.1142C30.1713 11.1085 29.257 10.3313 28.2056 9.8742L11.657 0.777058C11.1998 0.548486 10.697 0.319915 10.1484 0.182772C3.0627 -1.46294 -2.01158 6.30849 2.51413 12.3428C3.19985 13.2571 4.15985 13.9885 5.25699 14.3999L21.9427 21.8971C22.3084 22.1256 22.6741 22.2628 23.0856 22.3999C29.4856 24.4113 34.3313 17.6456 30.8113 12.1142Z" fill="url(#paint1_linear_101_1553)"/>
<path d="M30.8116 12.1143C29.9887 10.8343 28.7087 9.92004 27.2002 9.55433C25.6002 9.18862 24.0916 9.32576 22.8116 9.87433L5.2116 16.5029C5.2116 16.5029 5.12018 16.5486 4.93732 16.6858C0.411605 18.4686 -1.8284 24.3658 1.82875 29.2572C2.6516 30.3543 3.79446 31.1772 5.07446 31.5429C7.49732 32.2743 9.6916 32 11.4745 31.04H11.5202L28.7087 21.8515C28.7087 21.8515 28.7087 21.8515 28.7545 21.8058C31.7716 20.0686 33.1887 15.8172 30.8116 12.1143Z" fill="url(#paint2_linear_101_1553)"/>
<path d="M22.9945 5.85147C23.543 4.61718 23.4973 3.10861 22.583 1.73718C22.0802 0.914323 21.2573 0.365752 20.343 0.13718C18.2859 -0.365677 16.5487 0.594323 15.7259 2.05718L1.60017 19.2C1.60017 19.2 1.60017 19.2 1.60017 19.2458C-0.411257 21.8972 -0.731257 25.8286 1.82874 29.2572C2.6516 30.3543 3.79446 31.1772 5.07446 31.5429C9.87446 33.0515 13.8973 30.4 15.1773 26.6058L22.9945 5.85147Z" fill="url(#paint3_linear_101_1553)"/>
<path d="M6.12549 10.1257C6.12549 7.91659 7.91635 6.12573 10.1255 6.12573H21.8741C24.0832 6.12573 25.8741 7.91659 25.8741 10.1257V21.8743C25.8741 24.0834 24.0832 25.8743 21.8741 25.8743H10.1255C7.91634 25.8743 6.12549 24.0834 6.12549 21.8743V10.1257Z" fill="black"/>
<path d="M10 16.0646C10 12.7389 12.5333 10 16.2 10C17.8786 10 19.0454 10.3934 19.9981 11.0478C20.5609 11.4344 20.5793 12.2276 20.1279 12.7398C19.6544 13.2771 18.845 13.2967 18.2223 12.9429C17.6098 12.595 16.9581 12.4128 16.2 12.4128C14.2 12.4128 12.7333 14.0431 12.7333 16.0646V15.9994C12.7333 18.021 14.1333 19.6512 16.2 19.6512C17.1032 19.6512 17.7922 19.4119 18.4329 18.9939C18.9734 18.6413 19.6935 18.6341 20.1548 19.0853C20.6257 19.546 20.6549 20.3111 20.1389 20.7207C19.1156 21.5328 17.8825 21.9988 16.1333 21.9988C12.6 22.064 10 19.3904 10 16.0646Z" fill="white"/>
</g>
<defs>
<linearGradient id="paint0_linear_101_1553" x1="0.810773" y1="14.2962" x2="18.3614" y2="14.2962" gradientUnits="userSpaceOnUse">
<stop stop-color="#905CFB"/>
<stop offset="0.068" stop-color="#776CF9"/>
<stop offset="0.173" stop-color="#5681F7"/>
<stop offset="0.286" stop-color="#3B92F5"/>
<stop offset="0.41" stop-color="#269FF4"/>
<stop offset="0.547" stop-color="#17A9F3"/>
<stop offset="0.711" stop-color="#0FAEF2"/>
<stop offset="0.968" stop-color="#0CB0F2"/>
</linearGradient>
<linearGradient id="paint1_linear_101_1553" x1="2.42773" y1="4.42003" x2="31.6469" y2="20.0529" gradientUnits="userSpaceOnUse">
<stop stop-color="#905CFB"/>
<stop offset="0.068" stop-color="#776CF9"/>
<stop offset="0.173" stop-color="#5681F7"/>
<stop offset="0.286" stop-color="#3B92F5"/>
<stop offset="0.41" stop-color="#269FF4"/>
<stop offset="0.547" stop-color="#17A9F3"/>
<stop offset="0.711" stop-color="#0FAEF2"/>
<stop offset="0.968" stop-color="#0CB0F2"/>
</linearGradient>
<linearGradient id="paint2_linear_101_1553" x1="-8.81537" y1="32.3749" x2="25.5924" y2="15.1708" gradientUnits="userSpaceOnUse">
<stop stop-color="#3BEA62"/>
<stop offset="0.117" stop-color="#31DE80"/>
<stop offset="0.302" stop-color="#24CEA8"/>
<stop offset="0.484" stop-color="#1AC1C9"/>
<stop offset="0.659" stop-color="#12B7DF"/>
<stop offset="0.824" stop-color="#0EB2ED"/>
<stop offset="0.968" stop-color="#0CB0F2"/>
</linearGradient>
<linearGradient id="paint3_linear_101_1553" x1="17.8031" y1="2.67432" x2="2.47926" y2="35.4327" gradientUnits="userSpaceOnUse">
<stop stop-color="#3BEA62"/>
<stop offset="0.094" stop-color="#2FDB87"/>
<stop offset="0.196" stop-color="#24CEA8"/>
<stop offset="0.306" stop-color="#1BC3C3"/>
<stop offset="0.426" stop-color="#14BAD8"/>
<stop offset="0.56" stop-color="#10B5E7"/>
<stop offset="0.719" stop-color="#0DB1EF"/>
<stop offset="0.968" stop-color="#0CB0F2"/>
</linearGradient>
<clipPath id="clip0_101_1553">
<rect width="32" height="32" fill="white"/>
</clipPath>
</defs>
</svg>
